<svg version="1.1" id="design-svg" xmlns="http://www.w3.org/2000/svg" xmlns:xlink="http://www.w3.org/1999/xlink" x="0px" y="0px"
	 width="100px" height="99.259px" viewBox="0 0 100 99.259" style="enable-background:new 0 0 100 99.259;" xml:space="preserve">
<path stroke="#E5232E" d="M82.677,82.236v-0.25H18.536V18.095h63.891v64.141H82.677v-0.25V82.236h0.25V17.595H18.036v64.891
	h64.891v-0.25H82.677z M94.425,61.897v-0.25H6.138v-23.43h88.037v23.68H94.425v-0.25V61.897h0.25v-24.18H5.638v24.43h89.037v-0.25
	H94.425z M62.121,94.2v-0.25H38.442V5.913h23.429V94.2H62.121v-0.25V94.2h0.25V5.413H37.942V94.45h24.429V94.2H62.121z
	 M89.965,72.883v-0.25H11.033V27.45h78.682v45.433H89.965v-0.25V72.883h0.25V26.95H10.533v46.183h79.682v-0.25H89.965z
	 M73.216,89.634v-0.25H27.783V10.701h45.183v78.933H73.216v-0.25V89.634h0.25V10.201H27.283v79.683h46.183v-0.25H73.216z"/>
<rect x="49.976" y="5.905" stroke="#E5232E" width="0.499" height="88.053"/>
<path stroke="#E5232E" d="M61.981,6.086L38.038,94.07c-0.036,0.133,0.042,0.27,0.176,0.307c0.133,0.036,0.27-0.043,0.307-0.176
	L62.463,6.218c0.037-0.133-0.042-0.27-0.175-0.307C62.155,5.875,62.017,5.953,61.981,6.086"/>
<path stroke="#E5232E" d="M18.376,18.19l63.752,63.799l0.354-0.354L18.73,17.837L18.376,18.19z M11.238,27.503L89.76,72.867
	l0.25-0.433L11.488,27.07L11.238,27.503z M11.066,72.777l78.629-45.376l-0.25-0.433L10.816,72.344L11.066,72.777z M72.861,10.324
	L43.389,61.49L27.407,89.413l0.434,0.248l15.981-27.922v0.001l29.472-51.167L72.861,10.324z M27.54,10.707l45.363,78.766
	l0.433-0.249L27.973,10.457L27.54,10.707z M6.448,38.229l87.735,23.704l0.13-0.482L6.579,37.746L6.448,38.229z M6.079,62.066
	l88.1-23.804l-0.13-0.483l-88.1,23.804L6.079,62.066z"/>
<path stroke="#E5232E" d="M82.295,17.657L18.041,81.859c-0.097,0.097-0.097,0.256,0,0.353c0.098,0.098,0.256,0.098,0.354,0.001
	l64.253-64.202c0.098-0.098,0.098-0.256,0.001-0.354C82.551,17.56,82.393,17.559,82.295,17.657"/>
<path stroke="#E5232E" d="M38.28,5.906l23.492,87.885l0.483-0.129L38.763,5.777L38.28,5.906z M6.292,50.06h88.055v-0.5H6.292
	V50.06z"/>
</svg>